<svg width="434" height="138" viewBox="0 0 434 138" fill="none" xmlns="http://www.w3.org/2000/svg">
<path fill-rule="evenodd" clip-rule="evenodd" d="M161.189 88.6865C166.615 102.257 180.664 108.277 194.534 105.892C204.964 104.097 212.963 98.5147 218.541 91.2548C222.558 86.0258 226.774 76.1615 226.925 69.3827H185.537L183.189 81.0654H209.298C203.674 92.6214 185.148 98.7985 175.523 86.0342C171.834 81.1398 170.723 71.4954 173.26 64.5459C176.815 54.8007 187.841 48.5777 195.853 48.7586C203.865 48.9396 208.61 52.2425 210.748 57.6996H225.427C222.114 43.4738 209.376 35.8315 195.171 35.8315C182.736 35.8315 169.775 43.6943 163.471 54.158C157.165 64.6226 156.772 77.6365 161.189 88.6857L161.189 88.6865Z" fill="#ED1B24"/>
<path fill-rule="evenodd" clip-rule="evenodd" d="M406.962 94.247C393.672 94.247 388.423 79.9098 397.199 68.6064C400.497 64.3566 407.756 62.3413 412.93 63.8736C420.287 66.0528 424.47 74.5237 420.705 84.325C418.581 89.8561 413.491 94.247 406.962 94.247H406.962ZM397.601 56.4571L398.186 53.5062C394.468 53.5062 390.23 53.5233 386.515 53.5066L373.671 118.105L373.182 120.582L384.852 120.58C386.227 113.504 387.648 106.46 389.071 99.3956C395.717 106.843 409.759 107.086 418.247 103.135C426.935 99.0921 431.532 91.5947 433.191 82.8845C436.284 66.6511 427.179 51.744 409.351 52.8749C405.654 53.1094 400.573 54.0408 397.601 56.4563V56.4571Z" fill="#ED1B24"/>
<path fill-rule="evenodd" clip-rule="evenodd" d="M293.128 93.9472C276.794 93.9472 275.097 76.8339 282.861 68.7015C291.828 59.3091 308.406 63.496 308.406 77.771C308.406 86.3337 301.651 93.9475 293.128 93.9475L293.128 93.9472ZM267.066 79.8675C267.066 95.9552 276.199 105.63 292.529 105.63C306.88 105.63 319.79 92.9057 319.79 78.6694C319.79 73.1642 319.725 70.944 317.482 65.6991C311.345 51.3443 291.408 47.1298 277.32 58.6668C271.168 63.7054 267.066 71.5981 267.066 79.8671V79.8675Z" fill="#ED1B24"/>
<path fill-rule="evenodd" clip-rule="evenodd" d="M326.081 87.9558C326.081 95.0598 327.705 101.539 334.076 104.226C339.112 106.349 346.462 106.097 351.421 104.009C354.283 102.805 356.276 101.28 356.936 100.837L356.229 104.121L366.821 104.132L376.707 53.5063L364.85 53.5098L360.239 76.8965C358.352 86.4691 355.596 95.1456 344.953 95.1456C336.952 95.1456 338.499 83.3558 340.073 75.3914C341.488 68.2253 342.87 60.6786 344.354 53.5063H331.772L328.544 69.7439C327.329 75.8566 326.081 82.5549 326.081 87.9558Z" fill="#ED1B24"/>
<path fill-rule="evenodd" clip-rule="evenodd" d="M87.0294 47.515L75.3459 105.93H89.1263L100.809 47.515H114.29L116.52 35.5322H74.4472L72.1572 47.6171L87.0294 47.515Z" fill="#0094DA"/>
<path fill-rule="evenodd" clip-rule="evenodd" d="M41.7421 105.94H55.8214L69.3551 35.5324L55.4158 35.5066L41.7421 105.94Z" fill="#0094DA"/>
<path fill-rule="evenodd" clip-rule="evenodd" d="M249.093 59.4975L249.991 53.5063H239.208L229.322 104.132H241.903L246.992 78.0664C248.513 71.7436 250.344 66.8378 257.137 64.8457C258.674 64.395 262.322 63.9913 264.371 63.9913L266.467 52.3086C262.105 52.2115 260.495 51.947 256.274 54.0966C252.36 56.0907 250.378 58.6375 249.093 59.4979L249.093 59.4975Z" fill="#ED1B24"/>
<path fill-rule="evenodd" clip-rule="evenodd" d="M34.9052 131.393C19.7451 131.393 7.34532 122.543 7.34532 106.529C7.34532 89.3189 17.3485 72.1887 29.0824 57.5695C40.8164 42.95 56.4257 29.2091 74.6445 19.2534C84.8309 13.6871 101.138 6.17528 113.39 6.17528C124.291 6.17528 136.995 8.6185 142.149 19.6548C149.578 35.5615 137.433 60.1827 129.756 70.7307C120.893 82.9116 110.317 94.4133 98.5418 103.662C82.5679 116.209 55.6366 131.392 34.9048 131.392L34.9052 131.393ZM21.1256 135.166C33.1699 139.91 52.2726 135.587 64.2661 130.797C84.0858 122.88 95.097 114.637 110.607 101.648C117.641 95.7552 125.621 87.1451 131.065 79.8678C140.016 67.9066 150.827 47.2799 150.847 32.2476C150.861 22.1321 148.645 14.6913 141.164 8.35899C135.392 3.4733 126.085 0.219337 115.488 0.182916C94.5218 0.110833 69.3558 13.0834 50.6974 27.9579C32.039 42.8324 7.77325 68.6119 1.9759 97.264C-1.62141 115.045 4.30836 128.54 21.1264 135.166H21.1256Z" fill="#0093D9"/>
</svg>
